#!OML:ASF X:\für Bonn\!DataBase\2005_08_10_Bjorn_Final\c3d\bjorn.ASF
:FULLY-SPECIFIED
:DEGREES
98
root 0.432688 10.0265 3.61365 -183.841 -0.849009 177.974
lowerback 26.262 1.38707 3.40748
upperback 12.3133 -0.624013 0.27207
thorax -0.831488 -1.50511 -1.46718
lowerneck -25.3929 2.04484 3.55623
upperneck -4.61201 0.0656538 -4.80752
head 2.45613 -1.02918 -2.10967
rclavicle -3.18055e-015 8.34896e-015
rhumerus 82.5613 2.19996 -77.2019
rradius 6.20434
rwrist 47.0843
rhand -12.0067 8.4569
rfingers 7.12502
rthumb 14.0505 -21.0482
lclavicle -3.18055e-015 8.34896e-015
lhumerus 85.207 -4.23973 82.3195
lradius 4.32915
lwrist -59.0915
lhand -14.3175 -2.84055
lfingers 7.12502
lthumb 11.8229 26.8057
rfemur -72.9591 -49.7189 3.78355
rtibia 139.65
rfoot -33.3706 49.8975
rtoes -16.8214
lfemur -73.5643 38.3616 -16.1517
ltibia 141.467
lfoot -33.7299 -23.0867
ltoes -32.1853
99
root 0.430099 10.1726 3.61073 -183.429 -0.763622 178.053
lowerback 25.8758 1.34221 3.43393
upperback 12.1347 -0.59123 0.325548
thorax -0.849569 -1.45402 -1.43467
lowerneck -25.5555 2.06098 3.40845
upperneck -4.44933 0.134004 -4.73757
head 2.52935 -0.989166 -2.05984
rclavicle 1.19271e-015 8.74653e-015
rhumerus 82.7281 2.40291 -77.0581
rradius 6.37606
rwrist 47.1249
rhand -11.3473 8.32512
rfingers 7.12502
rthumb 14.6859 -21.1347
lclavicle 1.19271e-015 8.74653e-015
lhumerus 85.091 -4.20602 82.3531
lradius 4.50188
lwrist -59.3583
lhand -14.1547 -3.16188
lfingers 7.12502
lthumb 11.98 26.4753
rfemur -73.1971 -46.607 5.12266
rtibia 138.555
rfoot -32.1958 48.4198
rtoes -16.444
lfemur -73.4498 36.0135 -16.718
ltibia 140.411
lfoot -33.3404 -21.619
ltoes -32.9497
100
root 0.428475 10.3215 3.60689 -183.027 -0.679163 178.136
lowerback 25.492 1.30566 3.47339
upperback 11.9601 -0.547896 0.368134
thorax -0.862012 -1.39763 -1.42406
lowerneck -25.7784 2.06268 3.28439
upperneck -4.23189 0.17943 -4.66176
head 2.62639 -0.959968 -2.01457
rclavicle -2.5842e-014 -1.86858e-014
rhumerus 82.8891 2.59896 -76.9377
rradius 6.64216
rwrist 47.4389
rhand -10.4032 8.18567
rfingers 7.12502
rthumb 15.5953 -21.2056
lclavicle -2.5842e-014 -1.86858e-014
lhumerus 84.9826 -4.2058 82.3693
lradius 4.7829
lwrist -59.1434
lhand -13.6389 -3.60988
lfingers 7.12502
lthumb 12.4772 25.9976
rfemur -73.2279 -43.6771 6.25968
rtibia 137.426
rfoot -31.2018 47.0271
rtoes -15.7999
lfemur -73.2562 33.8781 -17.1691
ltibia 139.337
lfoot -32.8984 -20.4029
ltoes -33.2376
101
root 0.426512 10.4745 3.60048 -182.605 -0.59386 178.217
lowerback 25.0634 1.26725 3.50858
upperback 11.7745 -0.503918 0.410628
thorax -0.864393 -1.33869 -1.41157
lowerneck -26.0263 2.03443 3.15603
upperneck -3.91352 0.202158 -4.56377
head 2.75701 -0.935284 -1.96401
rclavicle 4.77083e-015 3.18055e-015
rhumerus 83.0723 2.79541 -76.8136
rradius 6.81421
rwrist 47.8152
rhand -9.6222 8.09709
rfingers 7.12502
rthumb 16.3474 -21.2339
lclavicle 4.77083e-015 3.18055e-015
lhumerus 84.8512 -4.20444 82.3881
lradius 5.05919
lwrist -58.9852
lhand -13.1613 -4.03098
lfingers 7.12502
lthumb 12.9377 25.5479
rfemur -73.1411 -40.9666 7.2564
rtibia 136.263
rfoot -30.5047 45.6244
rtoes -15.5061
lfemur -73.0092 31.8935 -17.5746
ltibia 138.22
lfoot -32.4455 -19.3345
ltoes -33.2283
102
root 0.425409 10.6301 3.59328 -182.242 -0.519659 178.299
lowerback 24.689 1.2396 3.53817
upperback 11.6013 -0.455583 0.463509
thorax -0.876868 -1.28233 -1.38504
lowerneck -26.2645 2.01386 3.03401
upperneck -3.61527 0.231897 -4.48714
head 2.88078 -0.909236 -1.92038
rclavicle 5.96354e-015 2.22639e-014
rhumerus 83.2732 2.97424 -76.6778
rradius 6.92065
rwrist 48.124
rhand -8.98718 8.05642
rfingers 7.12502
rthumb 16.9588 -21.2232
lclavicle 5.96354e-015 2.22639e-014
lhumerus 84.75 -4.22629 82.4174
lradius 5.29652
lwrist -58.8096
lhand -12.6929 -4.36376
lfingers 7.12502
lthumb 13.3892 25.186
rfemur -72.8547 -38.4724 8.07703
rtibia 135.068
rfoot -30.0493 44.2779
rtoes -15.2204
lfemur -72.6256 30.0941 -17.89
ltibia 137.063
lfoot -32.0434 -18.3724
ltoes -33.0327
103
root 0.424279 10.789 3.58379 -181.879 -0.446341 178.381
lowerback 24.2795 1.20437 3.57615
upperback 11.4252 -0.415105 0.508019
thorax -0.874765 -1.22819 -1.37068
lowerneck -26.4483 1.97997 2.90477
upperneck -3.30968 0.2544 -4.39086
head 2.99947 -0.881964 -1.86943
rclavicle 7.95139e-016 9.14409e-015
rhumerus 83.445 3.16661 -76.5565
rradius 7.01857
rwrist 48.4359
rhand -8.5192 8.02508
rfingers 7.12502
rthumb 17.4092 -21.2153
lclavicle 7.95139e-016 9.14409e-015
lhumerus 84.6749 -4.22008 82.4308
lradius 5.43992
lwrist -58.6616
lhand -12.6384 -4.5072
lfingers 7.12502
lthumb 13.4418 25.0391
rfemur -72.4755 -36.1658 8.79667
rtibia 133.842
rfoot -29.6434 43.0752
rtoes -14.8503
lfemur -72.1994 28.4432 -18.1585
ltibia 135.885
lfoot -31.6758 -17.4653
ltoes -32.6863
104
root 0.423099 10.949 3.57363 -181.583 -0.36469 178.464
lowerback 23.9404 1.18208 3.61686
upperback 11.25 -0.361938 0.555749
thorax -0.903304 -1.17125 -1.35632
lowerneck -26.6276 1.9653 2.87156
upperneck -2.98276 0.283617 -4.42079
head 3.12639 -0.85849 -1.87332
rclavicle -9.93923e-015 -3.18055e-015
rhumerus 83.6084 3.32812 -76.427
rradius 7.05088
rwrist 48.7451
rhand -8.47194 8.03292
rfingers 7.12502
rthumb 17.4547 -21.2034
lclavicle -9.93923e-015 -3.18055e-015
lhumerus 84.6477 -4.23687 82.4487
lradius 5.46916
lwrist -58.5246
lhand -13.184 -4.4449
lfingers 7.12502
lthumb 12.9159 25.1354
rfemur -71.948 -34.0436 9.39888
rtibia 132.581
rfoot -29.3556 41.9206
rtoes -14.5225
lfemur -71.6509 26.9566 -18.3503
ltibia 134.674
lfoot -31.3003 -16.7044
ltoes -32.1283
105
root 0.422158 11.1124 3.56229 -181.305 -0.293532 178.531
lowerback 23.5909 1.16116 3.63479
upperback 11.1029 -0.322953 0.612832
thorax -0.895737 -1.12561 -1.31613
lowerneck -26.9372 1.94578 2.76071
upperneck -2.55721 0.329162 -4.40133
head 3.30115 -0.824974 -1.84891
rclavicle 6.75868e-015 7.55382e-015
rhumerus 83.781 3.48196 -76.2787
rradius 7.128
rwrist 48.9519
rhand -8.73793 8.01567
rfingers 7.12502
rthumb 17.1987 -21.2432
lclavicle 6.75868e-015 7.55382e-015
lhumerus 84.7111 -4.20001 82.4719
lradius 5.49135
lwrist -58.9066
lhand -13.7038 -4.27635
lfingers 7.12502
lthumb 12.4147 25.335
rfemur -71.3506 -32.1197 9.91545
rtibia 131.287
rfoot -29.1027 40.8694
rtoes -14.1342
lfemur -71.0273 25.5351 -18.5271
ltibia 133.417
lfoot -30.9321 -16.0432
ltoes -31.3875
106
root 0.421701 11.2798 3.55006 -181.028 -0.213557 178.615
lowerback 23.241 1.13879 3.67408
upperback 10.934 -0.275421 0.655033
thorax -0.91027 -1.07257 -1.30552
lowerneck -27.2871 1.91288 2.67466
upperneck -1.98067 0.368213 -4.34601
head 3.50376 -0.786371 -1.82362
rclavicle -4.37326e-015 -1.47101e-014
rhumerus 83.9306 3.62402 -76.1628
rradius 7.14693
rwrist 49.1557
rhand -9.20979 8.00836
rfingers 7.12502
rthumb 16.7445 -21.2895
lclavicle -4.37326e-015 -1.47101e-014
lhumerus 84.8092 -4.19956 82.4658
lradius 5.48974
lwrist -59.6561
lhand -14.0095 -4.06619
lfingers 7.12502
lthumb 12.1199 25.5628
rfemur -70.7031 -30.3055 10.4236
rtibia 129.944
rfoot -28.8402 39.9095
rtoes -13.5747
lfemur -70.3914 24.253 -18.6622
ltibia 132.124
lfoot -30.611 -15.3885
ltoes -30.6604
107
root 0.421805 11.4509 3.53632 -180.771 -0.113736 178.701
lowerback 22.896 1.12846 3.71312
upperback 10.7774 -0.218397 0.695275
thorax -0.912042 -1.01672 -1.299
lowerneck -27.6491 1.87646 2.58268
upperneck -1.37974 0.410609 -4.27778
head 3.74261 -0.743213 -1.78714
rclavicle -2.38542e-015 2.38542e-015
rhumerus 84.0796 3.71773 -76.042
rradius 7.18005
rwrist 49.2877
rhand -9.5404 8.01507
rfingers 7.12502
rthumb 16.4262 -21.3095
lclavicle -2.38542e-015 2.38542e-015
lhumerus 84.9317 -4.16086 82.4492
lradius 5.45781
lwrist -60.359
lhand -14.3653 -3.86204
lfingers 7.12502
lthumb 11.7769 25.7869
rfemur -70.011 -28.5916 10.8987
rtibia 128.561
rfoot -28.5375 39.0135
rtoes -12.9095
lfemur -69.6861 23.1024 -18.768
ltibia 130.794
lfoot -30.3499 -14.7744
ltoes -29.9565
108
root 0.421766 11.6258 3.52172 -180.502 -0.0342438 178.766
lowerback 22.5192 1.11847 3.72978
upperback 10.6216 -0.165791 0.744911
thorax -0.896977 -0.963392 -1.26881
lowerneck -27.9824 1.81384 2.42297
upperneck -0.782579 0.43952 -4.16365
head 3.97614 -0.702643 -1.72601
rclavicle 2.38542e-015 7.95139e-015
rhumerus 84.2401 3.80959 -75.8964
rradius 7.21738
rwrist 49.1177
rhand -9.62292 8.00406
rfingers 7.12502
rthumb 16.3467 -21.327
lclavicle 2.38542e-015 7.95139e-015
lhumerus 85.1094 -4.13742 82.4566
lradius 5.4598
lwrist -60.5099
lhand -14.3549 -3.72391
lfingers 7.12502
lthumb 11.7869 25.9244
rfemur -69.2881 -27.063 11.3297
rtibia 127.134
rfoot -28.4495 38.0855
rtoes -12.7778
lfemur -68.9728 21.9539 -18.888
ltibia 129.411
lfoot -30.0526 -14.1958
ltoes -29.0873
